<?xml version="1.0" encoding="UTF-8"?><svg xmlns="http://www.w3.org/2000/svg" xmlns:xlink="http://www.w3.org/1999/xlink" contentScriptType="text/ecmascript" width="810" zoomAndPan="magnify" contentStyleType="text/css" viewBox="0 0 810 809.999993" height="809.999993" preserveAspectRatio="xMidYMid meet" version="1.0"><defs><clipPath id="clip-0"><path d="M 140.59375 563 L 294 563 L 294 669.34375 L 140.59375 669.34375 Z M 140.59375 563 " clip-rule="nonzero"/></clipPath><clipPath id="clip-1"><path d="M 328 563 L 481 563 L 481 669.34375 L 328 669.34375 Z M 328 563 " clip-rule="nonzero"/></clipPath><clipPath id="clip-2"><path d="M 515 563 L 669 563 L 669 669.34375 L 515 669.34375 Z M 515 563 " clip-rule="nonzero"/></clipPath><clipPath id="clip-3"><path d="M 166 140.59375 L 643 140.59375 L 643 413 L 166 413 Z M 166 140.59375 " clip-rule="nonzero"/></clipPath></defs><path fill="rgb(100%, 100%, 100%)" d="M 217.085938 570.359375 C 215.769531 570.359375 214.453125 570.296875 213.144531 570.167969 C 211.832031 570.039062 210.53125 569.84375 209.238281 569.585938 C 207.945312 569.332031 206.667969 569.011719 205.410156 568.628906 C 204.148438 568.246094 202.910156 567.800781 201.691406 567.296875 C 200.476562 566.792969 199.285156 566.230469 198.125 565.609375 C 196.960938 564.988281 195.832031 564.3125 194.738281 563.582031 C 193.640625 562.847656 192.585938 562.066406 191.566406 561.230469 C 190.546875 560.394531 189.574219 559.511719 188.640625 558.578125 C 187.710938 557.648438 186.828125 556.671875 185.992188 555.652344 C 185.15625 554.636719 184.371094 553.578125 183.640625 552.484375 C 182.90625 551.386719 182.230469 550.257812 181.609375 549.097656 C 180.988281 547.933594 180.425781 546.746094 179.921875 545.527344 C 179.417969 544.3125 178.972656 543.070312 178.59375 541.8125 C 178.210938 540.550781 177.890625 539.273438 177.632812 537.980469 C 177.375 536.691406 177.183594 535.386719 177.054688 534.078125 C 176.925781 532.765625 176.859375 531.453125 176.859375 530.132812 C 176.859375 528.816406 176.925781 527.503906 177.054688 526.191406 C 177.183594 524.878906 177.375 523.578125 177.632812 522.285156 C 177.890625 520.996094 178.210938 519.71875 178.59375 518.457031 C 178.972656 517.195312 179.417969 515.957031 179.921875 514.742188 C 180.425781 513.523438 180.988281 512.332031 181.609375 511.171875 C 182.230469 510.011719 182.90625 508.882812 183.640625 507.785156 C 184.371094 506.691406 185.15625 505.632812 185.992188 504.617188 C 186.828125 503.597656 187.710938 502.621094 188.640625 501.691406 C 189.574219 500.757812 190.546875 499.875 191.566406 499.039062 C 192.585938 498.203125 193.640625 497.417969 194.738281 496.6875 C 195.832031 495.957031 196.960938 495.277344 198.125 494.65625 C 199.285156 494.039062 200.476562 493.472656 201.691406 492.96875 C 202.910156 492.464844 204.148438 492.023438 205.410156 491.640625 C 206.667969 491.257812 207.945312 490.9375 209.238281 490.679688 C 210.53125 490.425781 211.832031 490.230469 213.144531 490.101562 C 214.453125 489.972656 215.769531 489.910156 217.085938 489.910156 C 218.402344 489.910156 219.71875 489.972656 221.027344 490.101562 C 222.339844 490.230469 223.640625 490.425781 224.933594 490.679688 C 226.226562 490.9375 227.503906 491.257812 228.761719 491.640625 C 230.023438 492.023438 231.261719 492.464844 232.480469 492.96875 C 233.695312 493.472656 234.886719 494.039062 236.046875 494.65625 C 237.210938 495.277344 238.339844 495.957031 239.433594 496.6875 C 240.53125 497.417969 241.585938 498.203125 242.605469 499.039062 C 243.625 499.875 244.597656 500.757812 245.53125 501.691406 C 246.460938 502.621094 247.34375 503.597656 248.179688 504.617188 C 249.015625 505.632812 249.800781 506.691406 250.53125 507.785156 C 251.265625 508.882812 251.941406 510.011719 252.5625 511.171875 C 253.183594 512.332031 253.746094 513.523438 254.25 514.742188 C 254.753906 515.957031 255.195312 517.195312 255.578125 518.457031 C 255.960938 519.71875 256.28125 520.996094 256.539062 522.285156 C 256.796875 523.578125 256.988281 524.878906 257.117188 526.191406 C 257.246094 527.503906 257.3125 528.816406 257.3125 530.132812 C 257.308594 531.453125 257.246094 532.765625 257.113281 534.074219 C 256.984375 535.386719 256.789062 536.6875 256.53125 537.980469 C 256.273438 539.269531 255.953125 540.546875 255.570312 541.804688 C 255.1875 543.066406 254.742188 544.304688 254.238281 545.519531 C 253.734375 546.738281 253.171875 547.925781 252.546875 549.085938 C 251.925781 550.25 251.25 551.378906 250.519531 552.472656 C 249.785156 553.566406 249.003906 554.625 248.167969 555.640625 C 247.332031 556.660156 246.449219 557.632812 245.515625 558.566406 C 244.585938 559.496094 243.609375 560.378906 242.59375 561.214844 C 241.574219 562.050781 240.519531 562.835938 239.421875 563.566406 C 238.328125 564.300781 237.199219 564.976562 236.039062 565.597656 C 234.878906 566.21875 233.6875 566.78125 232.472656 567.285156 C 231.257812 567.789062 230.019531 568.234375 228.757812 568.617188 C 227.496094 569 226.222656 569.320312 224.929688 569.578125 C 223.640625 569.839844 222.335938 570.03125 221.027344 570.164062 C 219.714844 570.292969 218.402344 570.359375 217.085938 570.359375 Z M 217.085938 504.730469 C 216.253906 504.730469 215.425781 504.773438 214.597656 504.855469 C 213.769531 504.9375 212.945312 505.058594 212.132812 505.222656 C 211.316406 505.386719 210.507812 505.589844 209.714844 505.832031 C 208.917969 506.074219 208.136719 506.355469 207.367188 506.671875 C 206.601562 506.992188 205.847656 507.347656 205.117188 507.742188 C 204.382812 508.132812 203.671875 508.5625 202.980469 509.023438 C 202.289062 509.488281 201.621094 509.980469 200.976562 510.511719 C 200.335938 511.039062 199.71875 511.597656 199.132812 512.1875 C 198.546875 512.773438 197.988281 513.390625 197.460938 514.035156 C 196.933594 514.679688 196.4375 515.347656 195.976562 516.039062 C 195.515625 516.730469 195.089844 517.441406 194.699219 518.175781 C 194.304688 518.910156 193.953125 519.660156 193.632812 520.429688 C 193.316406 521.199219 193.035156 521.980469 192.796875 522.777344 C 192.554688 523.574219 192.355469 524.378906 192.191406 525.195312 C 192.03125 526.011719 191.910156 526.835938 191.828125 527.664062 C 191.746094 528.492188 191.707031 529.320312 191.707031 530.152344 C 191.707031 530.984375 191.75 531.8125 191.832031 532.640625 C 191.914062 533.46875 192.035156 534.292969 192.199219 535.105469 C 192.363281 535.921875 192.5625 536.730469 192.804688 537.523438 C 193.046875 538.320312 193.328125 539.101562 193.648438 539.871094 C 193.964844 540.640625 194.320312 541.390625 194.714844 542.125 C 195.105469 542.855469 195.535156 543.570312 195.996094 544.261719 C 196.460938 544.953125 196.953125 545.621094 197.484375 546.261719 C 198.011719 546.90625 198.570312 547.519531 199.15625 548.109375 C 199.746094 548.695312 200.363281 549.253906 201.003906 549.78125 C 201.648438 550.308594 202.316406 550.804688 203.007812 551.265625 C 203.699219 551.726562 204.414062 552.152344 205.148438 552.546875 C 205.882812 552.9375 206.632812 553.292969 207.402344 553.609375 C 208.167969 553.925781 208.953125 554.207031 209.746094 554.449219 C 210.542969 554.691406 211.351562 554.890625 212.167969 555.054688 C 212.980469 555.214844 213.804688 555.335938 214.632812 555.417969 C 215.460938 555.5 216.289062 555.539062 217.121094 555.539062 C 217.953125 555.539062 218.78125 555.496094 219.609375 555.417969 C 220.4375 555.335938 221.261719 555.210938 222.078125 555.050781 C 222.890625 554.886719 223.699219 554.683594 224.496094 554.441406 C 225.289062 554.203125 226.074219 553.921875 226.839844 553.601562 C 227.609375 553.285156 228.359375 552.929688 229.09375 552.535156 C 229.828125 552.144531 230.539062 551.71875 231.230469 551.253906 C 231.921875 550.792969 232.589844 550.296875 233.234375 549.769531 C 233.875 549.242188 234.492188 548.683594 235.078125 548.09375 C 235.667969 547.507812 236.226562 546.890625 236.753906 546.25 C 237.28125 545.605469 237.777344 544.9375 238.238281 544.246094 C 238.699219 543.554688 239.125 542.839844 239.519531 542.109375 C 239.910156 541.375 240.265625 540.621094 240.585938 539.855469 C 240.902344 539.085938 241.183594 538.304688 241.425781 537.507812 C 241.664062 536.710938 241.867188 535.90625 242.03125 535.089844 C 242.191406 534.273438 242.3125 533.453125 242.394531 532.625 C 242.476562 531.796875 242.515625 530.964844 242.515625 530.132812 C 242.515625 529.300781 242.476562 528.472656 242.390625 527.644531 C 242.308594 526.816406 242.1875 525.992188 242.023438 525.175781 C 241.859375 524.359375 241.660156 523.554688 241.417969 522.757812 C 241.171875 521.960938 240.894531 521.179688 240.574219 520.410156 C 240.253906 519.640625 239.898438 518.890625 239.503906 518.15625 C 239.113281 517.421875 238.683594 516.710938 238.222656 516.019531 C 237.757812 515.328125 237.261719 514.660156 236.734375 514.015625 C 236.207031 513.371094 235.648438 512.757812 235.058594 512.167969 C 234.46875 511.582031 233.855469 511.023438 233.210938 510.496094 C 232.566406 509.96875 231.898438 509.472656 231.207031 509.011719 C 230.515625 508.546875 229.800781 508.121094 229.066406 507.726562 C 228.332031 507.335938 227.582031 506.980469 226.8125 506.664062 C 226.042969 506.34375 225.261719 506.066406 224.464844 505.824219 C 223.667969 505.582031 222.859375 505.378906 222.042969 505.21875 C 221.226562 505.054688 220.40625 504.933594 219.578125 504.851562 C 218.75 504.769531 217.917969 504.730469 217.085938 504.730469 Z M 217.085938 504.730469 " fill-opacity="1" fill-rule="nonzero"/><g clip-path="url(#clip-0)"><path fill="rgb(100%, 100%, 100%)" d="M 285.664062 669.949219 L 148.160156 669.949219 C 147.675781 669.949219 147.191406 669.902344 146.714844 669.808594 C 146.238281 669.710938 145.773438 669.570312 145.324219 669.386719 C 144.875 669.199219 144.445312 668.972656 144.042969 668.699219 C 143.636719 668.429688 143.261719 668.121094 142.917969 667.777344 C 142.574219 667.433594 142.265625 667.058594 141.996094 666.65625 C 141.726562 666.25 141.496094 665.824219 141.3125 665.371094 C 141.125 664.921875 140.984375 664.460938 140.890625 663.980469 C 140.792969 663.503906 140.746094 663.023438 140.746094 662.535156 L 140.746094 613.578125 C 140.75 610.957031 140.9375 608.355469 141.320312 605.761719 C 141.699219 603.171875 142.261719 600.621094 143.007812 598.113281 C 143.757812 595.601562 144.683594 593.160156 145.785156 590.785156 C 146.886719 588.410156 148.152344 586.125 149.582031 583.933594 C 151.015625 581.738281 152.597656 579.664062 154.328125 577.699219 C 156.0625 575.734375 157.925781 573.90625 159.925781 572.214844 C 161.921875 570.519531 164.03125 568.976562 166.25 567.589844 C 168.46875 566.199219 170.777344 564.980469 173.175781 563.925781 C 173.859375 563.625 174.574219 563.429688 175.320312 563.347656 C 176.0625 563.261719 176.804688 563.289062 177.539062 563.429688 C 178.273438 563.570312 178.972656 563.816406 179.632812 564.167969 C 180.296875 564.519531 180.890625 564.960938 181.417969 565.492188 C 182.578125 566.664062 183.796875 567.773438 185.070312 568.824219 C 186.339844 569.875 187.664062 570.863281 189.03125 571.785156 C 190.402344 572.703125 191.8125 573.554688 193.265625 574.339844 C 194.71875 575.121094 196.207031 575.828125 197.730469 576.464844 C 199.253906 577.097656 200.804688 577.660156 202.382812 578.140625 C 203.960938 578.625 205.558594 579.027344 207.175781 579.351562 C 208.792969 579.675781 210.425781 579.921875 212.066406 580.085938 C 213.707031 580.25 215.355469 580.332031 217.003906 580.335938 C 218.65625 580.335938 220.300781 580.257812 221.945312 580.097656 C 223.585938 579.9375 225.21875 579.699219 226.835938 579.375 C 228.453125 579.054688 230.054688 578.65625 231.632812 578.175781 C 233.210938 577.699219 234.765625 577.144531 236.289062 576.511719 C 237.8125 575.878906 239.304688 575.175781 240.757812 574.398438 C 242.214844 573.617188 243.628906 572.769531 245 571.851562 C 246.371094 570.9375 247.695312 569.953125 248.96875 568.90625 C 250.242188 567.855469 251.464844 566.75 252.628906 565.582031 C 253.160156 565.046875 253.757812 564.605469 254.421875 564.257812 C 255.085938 563.90625 255.789062 563.664062 256.527344 563.527344 C 257.265625 563.390625 258.007812 563.367188 258.753906 563.457031 C 259.496094 563.542969 260.214844 563.742188 260.898438 564.050781 C 263.277344 565.113281 265.566406 566.339844 267.769531 567.734375 C 269.972656 569.125 272.0625 570.667969 274.042969 572.363281 C 276.023438 574.058594 277.871094 575.882812 279.589844 577.84375 C 281.304688 579.804688 282.871094 581.875 284.289062 584.0625 C 285.710938 586.246094 286.964844 588.523438 288.054688 590.890625 C 289.144531 593.257812 290.0625 595.6875 290.800781 598.1875 C 291.542969 600.683594 292.101562 603.222656 292.476562 605.800781 C 292.851562 608.378906 293.039062 610.972656 293.042969 613.578125 L 293.042969 662.535156 C 293.042969 663.019531 292.996094 663.5 292.902344 663.976562 C 292.804688 664.453125 292.667969 664.917969 292.480469 665.363281 C 292.296875 665.8125 292.070312 666.238281 291.800781 666.644531 C 291.53125 667.046875 291.226562 667.421875 290.882812 667.765625 C 290.539062 668.109375 290.167969 668.417969 289.765625 668.6875 C 289.363281 668.960938 288.9375 669.1875 288.488281 669.375 C 288.042969 669.5625 287.582031 669.707031 287.105469 669.800781 C 286.628906 669.898438 286.148438 669.949219 285.664062 669.949219 Z M 155.566406 655.101562 L 278.257812 655.101562 L 278.257812 613.59375 C 278.257812 611.898438 278.148438 610.210938 277.929688 608.527344 C 277.710938 606.847656 277.386719 605.1875 276.953125 603.546875 C 276.523438 601.90625 275.988281 600.300781 275.347656 598.730469 C 274.707031 597.160156 273.972656 595.636719 273.136719 594.160156 C 272.300781 592.6875 271.375 591.269531 270.355469 589.914062 C 269.339844 588.558594 268.238281 587.273438 267.054688 586.058594 C 265.871094 584.84375 264.613281 583.710938 263.285156 582.65625 C 261.957031 581.605469 260.5625 580.640625 259.109375 579.769531 C 257.652344 581 256.144531 582.167969 254.582031 583.269531 C 253.023438 584.367188 251.417969 585.398438 249.765625 586.355469 C 248.117188 587.316406 246.425781 588.199219 244.699219 589.007812 C 242.96875 589.820312 241.207031 590.550781 239.414062 591.207031 C 237.621094 591.863281 235.804688 592.4375 233.960938 592.933594 C 232.117188 593.425781 230.253906 593.839844 228.375 594.171875 C 226.496094 594.503906 224.605469 594.75 222.703125 594.914062 C 220.800781 595.082031 218.894531 595.160156 216.988281 595.160156 C 215.078125 595.15625 213.171875 595.070312 211.273438 594.898438 C 209.371094 594.726562 207.480469 594.472656 205.601562 594.136719 C 203.722656 593.800781 201.863281 593.382812 200.019531 592.882812 C 198.179688 592.382812 196.363281 591.800781 194.570312 591.140625 C 192.777344 590.480469 191.019531 589.742188 189.292969 588.925781 C 187.570312 588.113281 185.882812 587.222656 184.234375 586.257812 C 182.585938 585.296875 180.984375 584.261719 179.425781 583.15625 C 177.871094 582.050781 176.363281 580.882812 174.910156 579.644531 C 173.445312 580.511719 172.039062 581.472656 170.695312 582.523438 C 169.355469 583.570312 168.085938 584.703125 166.890625 585.917969 C 165.695312 587.132812 164.582031 588.421875 163.550781 589.78125 C 162.523438 591.136719 161.585938 592.558594 160.742188 594.039062 C 159.898438 595.519531 159.152344 597.046875 158.503906 598.625 C 157.859375 600.203125 157.316406 601.8125 156.878906 603.460938 C 156.441406 605.109375 156.113281 606.777344 155.890625 608.46875 C 155.671875 610.15625 155.558594 611.855469 155.558594 613.558594 Z M 155.566406 655.101562 " fill-opacity="1" fill-rule="nonzero"/></g><path fill="rgb(100%, 100%, 100%)" d="M 404.703125 570.359375 C 403.386719 570.359375 402.070312 570.296875 400.761719 570.167969 C 399.449219 570.039062 398.148438 569.84375 396.855469 569.585938 C 395.5625 569.332031 394.285156 569.011719 393.027344 568.628906 C 391.765625 568.246094 390.527344 567.800781 389.308594 567.296875 C 388.09375 566.792969 386.902344 566.230469 385.742188 565.609375 C 384.578125 564.988281 383.449219 564.3125 382.355469 563.582031 C 381.257812 562.847656 380.203125 562.066406 379.183594 561.230469 C 378.164062 560.394531 377.191406 559.511719 376.257812 558.578125 C 375.328125 557.648438 374.445312 556.671875 373.609375 555.652344 C 372.773438 554.636719 371.988281 553.578125 371.257812 552.484375 C 370.523438 551.386719 369.847656 550.257812 369.226562 549.097656 C 368.605469 547.933594 368.042969 546.746094 367.539062 545.527344 C 367.035156 544.3125 366.589844 543.070312 366.210938 541.8125 C 365.828125 540.550781 365.507812 539.273438 365.25 537.980469 C 364.992188 536.691406 364.800781 535.386719 364.671875 534.078125 C 364.542969 532.765625 364.476562 531.453125 364.476562 530.132812 C 364.476562 528.816406 364.542969 527.503906 364.671875 526.191406 C 364.800781 524.878906 364.992188 523.578125 365.25 522.285156 C 365.507812 520.996094 365.828125 519.71875 366.210938 518.457031 C 366.589844 517.195312 367.035156 515.957031 367.539062 514.742188 C 368.042969 513.523438 368.605469 512.332031 369.226562 511.171875 C 369.847656 510.011719 370.523438 508.882812 371.257812 507.785156 C 371.988281 506.691406 372.773438 505.632812 373.609375 504.617188 C 374.445312 503.597656 375.328125 502.621094 376.257812 501.691406 C 377.191406 500.757812 378.164062 499.875 379.183594 499.039062 C 380.203125 498.203125 381.257812 497.417969 382.355469 496.6875 C 383.449219 495.957031 384.578125 495.277344 385.742188 494.65625 C 386.902344 494.039062 388.09375 493.472656 389.308594 492.96875 C 390.527344 492.464844 391.765625 492.023438 393.027344 491.640625 C 394.285156 491.257812 395.5625 490.9375 396.855469 490.679688 C 398.148438 490.425781 399.449219 490.230469 400.761719 490.101562 C 402.070312 489.972656 403.386719 489.910156 404.703125 489.910156 C 406.019531 489.910156 407.335938 489.972656 408.644531 490.101562 C 409.957031 490.230469 411.257812 490.425781 412.550781 490.679688 C 413.84375 490.9375 415.121094 491.257812 416.378906 491.640625 C 417.640625 492.023438 418.878906 492.464844 420.097656 492.96875 C 421.3125 493.472656 422.503906 494.039062 423.664062 494.65625 C 424.828125 495.277344 425.957031 495.957031 427.050781 496.6875 C 428.148438 497.417969 429.203125 498.203125 430.222656 499.039062 C 431.242188 499.875 432.214844 500.757812 433.148438 501.691406 C 434.078125 502.621094 434.960938 503.597656 435.796875 504.617188 C 436.632812 505.632812 437.417969 506.691406 438.148438 507.785156 C 438.882812 508.882812 439.558594 510.011719 440.179688 511.171875 C 440.800781 512.332031 441.363281 513.523438 441.867188 514.742188 C 442.371094 515.957031 442.8125 517.195312 443.195312 518.457031 C 443.578125 519.71875 443.898438 520.996094 444.15625 522.285156 C 444.414062 523.578125 444.605469 524.878906 444.734375 526.191406 C 444.863281 527.503906 444.929688 528.816406 444.929688 530.132812 C 444.925781 531.453125 444.863281 532.765625 444.730469 534.074219 C 444.601562 535.386719 444.40625 536.6875 444.148438 537.980469 C 443.890625 539.269531 443.570312 540.546875 443.1875 541.804688 C 442.804688 543.066406 442.359375 544.304688 441.855469 545.519531 C 441.351562 546.738281 440.789062 547.925781 440.167969 549.085938 C 439.542969 550.25 438.867188 551.378906 438.136719 552.472656 C 437.402344 553.566406 436.621094 554.625 435.785156 555.640625 C 434.949219 556.660156 434.066406 557.632812 433.132812 558.566406 C 432.203125 559.496094 431.226562 560.378906 430.210938 561.214844 C 429.191406 562.050781 428.136719 562.835938 427.039062 563.566406 C 425.945312 564.300781 424.816406 564.976562 423.65625 565.597656 C 422.496094 566.21875 421.304688 566.78125 420.089844 567.285156 C 418.875 567.792969 417.636719 568.234375 416.375 568.617188 C 415.113281 569 413.839844 569.320312 412.546875 569.578125 C 411.257812 569.839844 409.953125 570.03125 408.644531 570.164062 C 407.332031 570.292969 406.019531 570.359375 404.703125 570.359375 Z M 404.703125 504.730469 C 403.871094 504.730469 403.039062 504.769531 402.214844 504.851562 C 401.386719 504.933594 400.5625 505.054688 399.746094 505.21875 C 398.929688 505.378906 398.125 505.582031 397.328125 505.824219 C 396.53125 506.066406 395.75 506.34375 394.980469 506.664062 C 394.210938 506.980469 393.460938 507.335938 392.726562 507.730469 C 391.992188 508.121094 391.28125 508.546875 390.589844 509.011719 C 389.898438 509.472656 389.230469 509.96875 388.585938 510.496094 C 387.941406 511.023438 387.328125 511.582031 386.738281 512.171875 C 386.152344 512.757812 385.59375 513.375 385.066406 514.019531 C 384.535156 514.660156 384.042969 515.328125 383.578125 516.019531 C 383.117188 516.710938 382.691406 517.425781 382.296875 518.160156 C 381.90625 518.890625 381.550781 519.644531 381.230469 520.414062 C 380.914062 521.179688 380.632812 521.964844 380.390625 522.757812 C 380.152344 523.554688 379.949219 524.363281 379.785156 525.179688 C 379.625 525.996094 379.503906 526.816406 379.421875 527.644531 C 379.339844 528.472656 379.296875 529.300781 379.296875 530.132812 C 379.296875 530.964844 379.339844 531.796875 379.421875 532.625 C 379.503906 533.453125 379.625 534.273438 379.785156 535.089844 C 379.949219 535.90625 380.152344 536.710938 380.390625 537.507812 C 380.632812 538.304688 380.914062 539.085938 381.230469 539.855469 C 381.550781 540.625 381.90625 541.375 382.296875 542.109375 C 382.691406 542.84375 383.117188 543.558594 383.578125 544.25 C 384.042969 544.941406 384.535156 545.609375 385.066406 546.25 C 385.59375 546.894531 386.152344 547.511719 386.738281 548.097656 C 387.328125 548.6875 387.941406 549.246094 388.585938 549.773438 C 389.230469 550.300781 389.898438 550.796875 390.589844 551.257812 C 391.28125 551.71875 391.992188 552.148438 392.726562 552.539062 C 393.460938 552.933594 394.210938 553.285156 394.980469 553.605469 C 395.75 553.925781 396.53125 554.203125 397.328125 554.445312 C 398.125 554.6875 398.929688 554.890625 399.746094 555.050781 C 400.5625 555.214844 401.386719 555.335938 402.214844 555.417969 C 403.039062 555.5 403.871094 555.539062 404.703125 555.539062 C 405.535156 555.539062 406.363281 555.5 407.191406 555.417969 C 408.019531 555.335938 408.84375 555.214844 409.660156 555.050781 C 410.476562 554.890625 411.28125 554.6875 412.078125 554.445312 C 412.875 554.203125 413.65625 553.925781 414.425781 553.605469 C 415.195312 553.285156 415.945312 552.933594 416.679688 552.539062 C 417.414062 552.148438 418.125 551.71875 418.816406 551.257812 C 419.507812 550.796875 420.175781 550.300781 420.820312 549.773438 C 421.464844 549.246094 422.078125 548.6875 422.667969 548.097656 C 423.253906 547.511719 423.8125 546.894531 424.339844 546.25 C 424.867188 545.609375 425.363281 544.941406 425.828125 544.25 C 426.289062 543.558594 426.714844 542.84375 427.109375 542.109375 C 427.5 541.375 427.855469 540.625 428.175781 539.855469 C 428.492188 539.085938 428.773438 538.304688 429.015625 537.507812 C 429.253906 536.710938 429.457031 535.90625 429.621094 535.089844 C 429.78125 534.273438 429.902344 533.453125 429.984375 532.625 C 430.066406 531.796875 430.109375 530.964844 430.109375 530.132812 C 430.105469 529.300781 430.066406 528.472656 429.984375 527.644531 C 429.902344 526.816406 429.777344 525.996094 429.617188 525.179688 C 429.453125 524.363281 429.25 523.558594 429.007812 522.761719 C 428.765625 521.96875 428.484375 521.183594 428.167969 520.417969 C 427.847656 519.648438 427.492188 518.898438 427.101562 518.164062 C 426.707031 517.429688 426.28125 516.71875 425.816406 516.027344 C 425.355469 515.335938 424.859375 514.667969 424.332031 514.023438 C 423.804688 513.382812 423.246094 512.765625 422.660156 512.179688 C 422.070312 511.589844 421.457031 511.03125 420.8125 510.503906 C 420.167969 509.976562 419.503906 509.480469 418.8125 509.019531 C 418.121094 508.558594 417.40625 508.128906 416.671875 507.738281 C 415.941406 507.34375 415.1875 506.988281 414.421875 506.671875 C 413.652344 506.351562 412.871094 506.070312 412.074219 505.828125 C 411.277344 505.585938 410.472656 505.386719 409.65625 505.222656 C 408.839844 505.058594 408.019531 504.9375 407.191406 504.855469 C 406.363281 504.773438 405.535156 504.730469 404.703125 504.730469 Z M 404.703125 504.730469 " fill-opacity="1" fill-rule="nonzero"/><g clip-path="url(#clip-1)"><path fill="rgb(100%, 100%, 100%)" d="M 473.28125 669.949219 L 335.769531 669.949219 C 335.28125 669.949219 334.800781 669.902344 334.324219 669.808594 C 333.84375 669.710938 333.382812 669.570312 332.933594 669.386719 C 332.480469 669.199219 332.054688 668.972656 331.648438 668.699219 C 331.246094 668.429688 330.871094 668.121094 330.527344 667.777344 C 330.183594 667.433594 329.875 667.058594 329.605469 666.65625 C 329.332031 666.25 329.105469 665.824219 328.917969 665.371094 C 328.734375 664.921875 328.59375 664.460938 328.496094 663.980469 C 328.402344 663.503906 328.355469 663.023438 328.355469 662.535156 L 328.355469 613.578125 C 328.355469 610.957031 328.546875 608.355469 328.925781 605.761719 C 329.304688 603.171875 329.871094 600.621094 330.617188 598.113281 C 331.367188 595.601562 332.289062 593.160156 333.390625 590.785156 C 334.492188 588.410156 335.757812 586.125 337.191406 583.933594 C 338.625 581.738281 340.207031 579.664062 341.9375 577.699219 C 343.671875 575.734375 345.535156 573.90625 347.53125 572.214844 C 349.53125 570.519531 351.636719 568.976562 353.859375 567.589844 C 356.078125 566.199219 358.386719 564.980469 360.78125 563.925781 C 361.46875 563.625 362.183594 563.429688 362.925781 563.347656 C 363.671875 563.261719 364.410156 563.289062 365.148438 563.429688 C 365.882812 563.570312 366.582031 563.816406 367.242188 564.167969 C 367.902344 564.519531 368.5 564.960938 369.027344 565.492188 C 370.1875 566.664062 371.40625 567.773438 372.679688 568.824219 C 373.949219 569.875 375.269531 570.863281 376.640625 571.785156 C 378.007812 572.703125 379.421875 573.554688 380.875 574.339844 C 382.328125 575.121094 383.816406 575.828125 385.339844 576.464844 C 386.863281 577.097656 388.410156 577.660156 389.992188 578.140625 C 391.570312 578.625 393.167969 579.027344 394.785156 579.351562 C 396.402344 579.675781 398.03125 579.921875 399.675781 580.085938 C 401.316406 580.25 402.964844 580.332031 404.613281 580.335938 C 406.261719 580.335938 407.910156 580.257812 409.550781 580.097656 C 411.195312 579.9375 412.824219 579.699219 414.445312 579.375 C 416.0625 579.054688 417.664062 578.65625 419.242188 578.175781 C 420.820312 577.699219 422.375 577.144531 423.898438 576.511719 C 425.421875 575.878906 426.914062 575.175781 428.367188 574.398438 C 429.824219 573.617188 431.234375 572.769531 432.609375 571.851562 C 433.980469 570.9375 435.300781 569.953125 436.578125 568.90625 C 437.851562 567.855469 439.074219 566.75 440.238281 565.582031 C 440.769531 565.046875 441.367188 564.605469 442.03125 564.257812 C 442.695312 563.90625 443.394531 563.664062 444.132812 563.527344 C 444.871094 563.390625 445.613281 563.367188 446.359375 563.457031 C 447.105469 563.542969 447.820312 563.742188 448.507812 564.050781 C 450.886719 565.113281 453.175781 566.339844 455.378906 567.734375 C 457.582031 569.125 459.671875 570.667969 461.652344 572.363281 C 463.632812 574.058594 465.480469 575.882812 467.195312 577.84375 C 468.914062 579.804688 470.480469 581.875 471.898438 584.0625 C 473.316406 586.246094 474.574219 588.523438 475.664062 590.890625 C 476.753906 593.257812 477.667969 595.6875 478.410156 598.1875 C 479.152344 600.683594 479.710938 603.222656 480.085938 605.800781 C 480.460938 608.378906 480.648438 610.972656 480.652344 613.578125 L 480.652344 662.535156 C 480.652344 663.019531 480.605469 663.5 480.511719 663.976562 C 480.417969 664.453125 480.277344 664.914062 480.09375 665.363281 C 479.910156 665.8125 479.679688 666.238281 479.414062 666.644531 C 479.144531 667.046875 478.839844 667.421875 478.496094 667.765625 C 478.15625 668.109375 477.78125 668.417969 477.378906 668.6875 C 476.976562 668.957031 476.554688 669.1875 476.105469 669.375 C 475.65625 669.5625 475.195312 669.703125 474.722656 669.800781 C 474.246094 669.898438 473.765625 669.949219 473.28125 669.949219 Z M 343.183594 655.101562 L 465.867188 655.101562 L 465.867188 613.59375 C 465.863281 611.898438 465.753906 610.210938 465.539062 608.527344 C 465.320312 606.847656 464.996094 605.1875 464.5625 603.546875 C 464.128906 601.90625 463.59375 600.300781 462.957031 598.730469 C 462.316406 597.160156 461.578125 595.636719 460.746094 594.160156 C 459.910156 592.6875 458.980469 591.269531 457.964844 589.914062 C 456.945312 588.558594 455.847656 587.273438 454.664062 586.058594 C 453.480469 584.84375 452.222656 583.710938 450.894531 582.65625 C 449.5625 581.605469 448.171875 580.640625 446.71875 579.769531 C 445.261719 581 443.75 582.167969 442.191406 583.269531 C 440.632812 584.367188 439.027344 585.398438 437.375 586.355469 C 435.726562 587.316406 434.035156 588.199219 432.304688 589.007812 C 430.578125 589.820312 428.816406 590.550781 427.023438 591.207031 C 425.230469 591.863281 423.414062 592.4375 421.570312 592.933594 C 419.726562 593.425781 417.863281 593.839844 415.984375 594.171875 C 414.105469 594.503906 412.214844 594.75 410.3125 594.914062 C 408.410156 595.082031 406.503906 595.160156 404.59375 595.160156 C 402.6875 595.15625 400.78125 595.070312 398.878906 594.898438 C 396.980469 594.726562 395.089844 594.472656 393.210938 594.136719 C 391.332031 593.800781 389.46875 593.382812 387.628906 592.882812 C 385.785156 592.382812 383.96875 591.800781 382.179688 591.140625 C 380.386719 590.480469 378.628906 589.742188 376.902344 588.925781 C 375.175781 588.113281 373.488281 587.222656 371.84375 586.257812 C 370.195312 585.296875 368.589844 584.261719 367.035156 583.15625 C 365.476562 582.050781 363.972656 580.882812 362.519531 579.644531 C 361.050781 580.511719 359.648438 581.472656 358.304688 582.523438 C 356.960938 583.570312 355.691406 584.703125 354.496094 585.917969 C 353.300781 587.132812 352.191406 588.421875 351.160156 589.78125 C 350.132812 591.136719 349.195312 592.558594 348.351562 594.039062 C 347.503906 595.519531 346.761719 597.046875 346.113281 598.625 C 345.46875 600.203125 344.925781 601.8125 344.488281 603.460938 C 344.050781 605.109375 343.722656 606.777344 343.5 608.46875 C 343.277344 610.15625 343.167969 611.855469 343.167969 613.558594 Z M 343.183594 655.101562 " fill-opacity="1" fill-rule="nonzero"/></g><path fill="rgb(100%, 100%, 100%)" d="M 592.347656 570.359375 C 591.03125 570.359375 589.714844 570.296875 588.402344 570.167969 C 587.09375 570.039062 585.792969 569.84375 584.5 569.585938 C 583.207031 569.332031 581.929688 569.011719 580.671875 568.628906 C 579.410156 568.246094 578.171875 567.800781 576.953125 567.296875 C 575.734375 566.792969 574.546875 566.230469 573.382812 565.609375 C 572.222656 564.988281 571.09375 564.3125 570 563.582031 C 568.902344 562.847656 567.847656 562.066406 566.828125 561.230469 C 565.808594 560.394531 564.835938 559.511719 563.902344 558.578125 C 562.972656 557.648438 562.085938 556.671875 561.25 555.652344 C 560.417969 554.636719 559.632812 553.578125 558.898438 552.484375 C 558.167969 551.386719 557.492188 550.257812 556.871094 549.097656 C 556.25 547.933594 555.6875 546.746094 555.183594 545.527344 C 554.679688 544.3125 554.234375 543.070312 553.851562 541.8125 C 553.46875 540.550781 553.152344 539.273438 552.894531 537.980469 C 552.636719 536.691406 552.445312 535.386719 552.316406 534.078125 C 552.1875 532.765625 552.121094 531.453125 552.121094 530.132812 C 552.121094 528.816406 552.1875 527.503906 552.316406 526.191406 C 552.445312 524.878906 552.636719 523.578125 552.894531 522.285156 C 553.152344 520.996094 553.46875 519.71875 553.851562 518.457031 C 554.234375 517.195312 554.679688 515.957031 555.183594 514.742188 C 555.6875 513.523438 556.25 512.332031 556.871094 511.171875 C 557.492188 510.011719 558.167969 508.882812 558.898438 507.785156 C 559.632812 506.691406 560.417969 505.632812 561.25 504.617188 C 562.085938 503.597656 562.972656 502.621094 563.902344 501.691406 C 564.835938 500.757812 565.808594 499.875 566.828125 499.039062 C 567.847656 498.203125 568.902344 497.417969 570 496.6875 C 571.09375 495.957031 572.222656 495.28125 573.382812 494.660156 C 574.546875 494.039062 575.734375 493.476562 576.953125 492.96875 C 578.171875 492.464844 579.410156 492.023438 580.671875 491.640625 C 581.929688 491.257812 583.207031 490.9375 584.5 490.679688 C 585.792969 490.425781 587.09375 490.230469 588.402344 490.101562 C 589.714844 489.972656 591.03125 489.910156 592.347656 489.910156 C 593.664062 489.910156 594.980469 489.972656 596.289062 490.101562 C 597.601562 490.230469 598.902344 490.425781 600.195312 490.679688 C 601.488281 490.9375 602.761719 491.257812 604.023438 491.640625 C 605.285156 492.023438 606.523438 492.464844 607.742188 492.96875 C 608.957031 493.476562 610.148438 494.039062 611.308594 494.660156 C 612.472656 495.28125 613.601562 495.957031 614.695312 496.6875 C 615.789062 497.417969 616.847656 498.203125 617.867188 499.039062 C 618.882812 499.875 619.859375 500.757812 620.789062 501.691406 C 621.722656 502.621094 622.605469 503.597656 623.441406 504.617188 C 624.277344 505.632812 625.0625 506.691406 625.792969 507.785156 C 626.527344 508.882812 627.203125 510.011719 627.824219 511.171875 C 628.445312 512.332031 629.007812 513.523438 629.511719 514.742188 C 630.015625 515.957031 630.457031 517.195312 630.839844 518.457031 C 631.222656 519.71875 631.542969 520.996094 631.800781 522.285156 C 632.058594 523.578125 632.25 524.878906 632.378906 526.191406 C 632.507812 527.503906 632.574219 528.816406 632.574219 530.132812 C 632.570312 531.453125 632.503906 532.765625 632.375 534.074219 C 632.246094 535.386719 632.050781 536.6875 631.792969 537.980469 C 631.535156 539.269531 631.214844 540.546875 630.832031 541.804688 C 630.449219 543.066406 630.003906 544.304688 629.5 545.519531 C 628.996094 546.738281 628.429688 547.925781 627.808594 549.085938 C 627.1875 550.25 626.511719 551.378906 625.78125 552.472656 C 625.046875 553.566406 624.265625 554.625 623.429688 555.640625 C 622.59375 556.660156 621.710938 557.632812 620.777344 558.566406 C 619.847656 559.496094 618.871094 560.378906 617.855469 561.214844 C 616.835938 562.050781 615.78125 562.835938 614.683594 563.566406 C 613.589844 564.300781 612.460938 564.976562 611.300781 565.597656 C 610.140625 566.21875 608.949219 566.78125 607.734375 567.285156 C 606.515625 567.789062 605.277344 568.234375 604.019531 568.617188 C 602.757812 569 601.484375 569.320312 600.191406 569.578125 C 598.898438 569.839844 597.597656 570.03125 596.289062 570.164062 C 594.976562 570.292969 593.664062 570.359375 592.347656 570.359375 Z M 592.347656 504.730469 C 591.515625 504.730469 590.683594 504.769531 589.855469 504.851562 C 589.027344 504.933594 588.207031 505.054688 587.390625 505.21875 C 586.574219 505.378906 585.769531 505.582031 584.972656 505.824219 C 584.175781 506.066406 583.394531 506.34375 582.625 506.664062 C 581.855469 506.980469 581.105469 507.335938 580.371094 507.730469 C 579.636719 508.121094 578.925781 508.546875 578.234375 509.011719 C 577.539062 509.472656 576.875 509.96875 576.230469 510.496094 C 575.585938 511.023438 574.972656 511.582031 574.382812 512.171875 C 573.792969 512.757812 573.238281 513.375 572.707031 514.019531 C 572.179688 514.660156 571.6875 515.328125 571.222656 516.019531 C 570.761719 516.710938 570.335938 517.425781 569.941406 518.160156 C 569.550781 518.890625 569.195312 519.644531 568.875 520.414062 C 568.558594 521.179688 568.277344 521.964844 568.035156 522.757812 C 567.792969 523.554688 567.59375 524.363281 567.429688 525.179688 C 567.269531 525.996094 567.144531 526.816406 567.0625 527.644531 C 566.984375 528.472656 566.941406 529.300781 566.941406 530.132812 C 566.941406 530.964844 566.984375 531.796875 567.0625 532.625 C 567.144531 533.453125 567.269531 534.273438 567.429688 535.089844 C 567.59375 535.90625 567.792969 536.710938 568.035156 537.507812 C 568.277344 538.304688 568.558594 539.085938 568.875 539.855469 C 569.195312 540.625 569.550781 541.375 569.941406 542.109375 C 570.335938 542.84375 570.761719 543.558594 571.222656 544.25 C 571.6875 544.941406 572.179688 545.609375 572.707031 546.25 C 573.238281 546.894531 573.792969 547.511719 574.382812 548.097656 C 574.972656 548.6875 575.585938 549.246094 576.230469 549.773438 C 576.875 550.300781 577.539062 550.796875 578.234375 551.257812 C 578.925781 551.71875 579.636719 552.148438 580.371094 552.539062 C 581.105469 552.933594 581.855469 553.285156 582.625 553.605469 C 583.394531 553.925781 584.175781 554.203125 584.972656 554.445312 C 585.769531 554.6875 586.574219 554.890625 587.390625 555.050781 C 588.207031 555.214844 589.027344 555.335938 589.855469 555.417969 C 590.683594 555.5 591.515625 555.539062 592.347656 555.539062 C 593.179688 555.539062 594.007812 555.5 594.835938 555.417969 C 595.664062 555.335938 596.488281 555.214844 597.304688 555.050781 C 598.121094 554.890625 598.925781 554.6875 599.722656 554.445312 C 600.519531 554.203125 601.300781 553.925781 602.070312 553.605469 C 602.835938 553.285156 603.589844 552.933594 604.324219 552.539062 C 605.054688 552.148438 605.769531 551.71875 606.460938 551.257812 C 607.152344 550.796875 607.820312 550.300781 608.464844 549.773438 C 609.105469 549.246094 609.722656 548.6875 610.3125 548.097656 C 610.898438 547.511719 611.457031 546.894531 611.984375 546.25 C 612.511719 545.609375 613.007812 544.941406 613.46875 544.25 C 613.933594 543.558594 614.359375 542.84375 614.753906 542.109375 C 615.144531 541.375 615.5 540.625 615.816406 539.855469 C 616.136719 539.085938 616.417969 538.304688 616.65625 537.507812 C 616.898438 536.710938 617.101562 535.90625 617.261719 535.089844 C 617.425781 534.273438 617.546875 533.453125 617.628906 532.625 C 617.710938 531.796875 617.75 530.964844 617.75 530.132812 C 617.75 529.300781 617.710938 528.472656 617.628906 527.644531 C 617.542969 526.816406 617.421875 525.996094 617.257812 525.179688 C 617.097656 524.363281 616.894531 523.558594 616.652344 522.761719 C 616.410156 521.96875 616.128906 521.183594 615.8125 520.417969 C 615.492188 519.648438 615.136719 518.898438 614.742188 518.164062 C 614.351562 517.429688 613.925781 516.71875 613.460938 516.027344 C 613 515.335938 612.503906 514.667969 611.976562 514.023438 C 611.449219 513.382812 610.890625 512.765625 610.304688 512.179688 C 609.714844 511.589844 609.097656 511.03125 608.457031 510.503906 C 607.8125 509.976562 607.144531 509.480469 606.453125 509.019531 C 605.761719 508.558594 605.050781 508.128906 604.316406 507.738281 C 603.582031 507.34375 602.832031 506.988281 602.066406 506.671875 C 601.296875 506.351562 600.515625 506.070312 599.71875 505.828125 C 598.921875 505.585938 598.117188 505.386719 597.300781 505.222656 C 596.484375 505.058594 595.664062 504.9375 594.835938 504.855469 C 594.007812 504.773438 593.179688 504.730469 592.347656 504.730469 Z M 592.347656 504.730469 " fill-opacity="1" fill-rule="nonzero"/><g clip-path="url(#clip-2)"><path fill="rgb(100%, 100%, 100%)" d="M 660.886719 669.949219 L 523.386719 669.949219 C 522.898438 669.949219 522.417969 669.902344 521.941406 669.808594 C 521.460938 669.714844 521 669.574219 520.546875 669.386719 C 520.097656 669.203125 519.671875 668.972656 519.265625 668.703125 C 518.859375 668.433594 518.484375 668.125 518.140625 667.78125 C 517.796875 667.4375 517.488281 667.0625 517.21875 666.65625 C 516.949219 666.253906 516.71875 665.824219 516.535156 665.375 C 516.347656 664.925781 516.207031 664.460938 516.113281 663.984375 C 516.019531 663.503906 515.972656 663.023438 515.972656 662.535156 L 515.972656 613.578125 C 515.972656 610.957031 516.164062 608.355469 516.542969 605.761719 C 516.921875 603.171875 517.488281 600.621094 518.234375 598.113281 C 518.984375 595.601562 519.90625 593.160156 521.007812 590.785156 C 522.109375 588.410156 523.378906 586.125 524.808594 583.933594 C 526.242188 581.738281 527.824219 579.664062 529.554688 577.699219 C 531.289062 575.734375 533.152344 573.90625 535.148438 572.214844 C 537.148438 570.519531 539.253906 568.976562 541.476562 567.589844 C 543.695312 566.199219 546.003906 564.980469 548.398438 563.925781 C 549.085938 563.621094 549.800781 563.429688 550.542969 563.34375 C 551.289062 563.261719 552.027344 563.289062 552.765625 563.429688 C 553.5 563.566406 554.199219 563.8125 554.859375 564.164062 C 555.523438 564.515625 556.117188 564.960938 556.644531 565.492188 C 557.804688 566.664062 559.023438 567.773438 560.296875 568.824219 C 561.566406 569.875 562.886719 570.863281 564.257812 571.785156 C 565.625 572.703125 567.039062 573.554688 568.492188 574.339844 C 569.945312 575.121094 571.433594 575.828125 572.957031 576.464844 C 574.480469 577.097656 576.027344 577.660156 577.609375 578.140625 C 579.1875 578.625 580.785156 579.027344 582.402344 579.351562 C 584.019531 579.675781 585.648438 579.921875 587.292969 580.085938 C 588.933594 580.25 590.582031 580.332031 592.230469 580.335938 C 593.878906 580.335938 595.527344 580.257812 597.167969 580.097656 C 598.8125 579.9375 600.441406 579.699219 602.0625 579.375 C 603.679688 579.054688 605.28125 578.65625 606.859375 578.175781 C 608.4375 577.699219 609.992188 577.144531 611.515625 576.511719 C 613.039062 575.878906 614.53125 575.175781 615.984375 574.398438 C 617.441406 573.617188 618.851562 572.769531 620.226562 571.851562 C 621.597656 570.9375 622.917969 569.953125 624.195312 568.90625 C 625.46875 567.855469 626.691406 566.75 627.855469 565.582031 C 628.386719 565.046875 628.984375 564.605469 629.648438 564.257812 C 630.3125 563.90625 631.011719 563.664062 631.75 563.527344 C 632.488281 563.390625 633.230469 563.367188 633.976562 563.457031 C 634.722656 563.542969 635.4375 563.742188 636.125 564.050781 C 638.503906 565.113281 640.792969 566.339844 642.996094 567.734375 C 645.199219 569.125 647.289062 570.667969 649.269531 572.363281 C 651.25 574.058594 653.097656 575.882812 654.8125 577.84375 C 656.53125 579.804688 658.097656 581.875 659.515625 584.0625 C 660.933594 586.246094 662.191406 588.523438 663.28125 590.890625 C 664.371094 593.257812 665.285156 595.6875 666.027344 598.1875 C 666.769531 600.683594 667.328125 603.222656 667.703125 605.800781 C 668.078125 608.378906 668.265625 610.972656 668.269531 613.578125 L 668.269531 662.535156 C 668.269531 663.019531 668.222656 663.5 668.128906 663.976562 C 668.035156 664.453125 667.894531 664.917969 667.710938 665.367188 C 667.523438 665.816406 667.296875 666.242188 667.027344 666.644531 C 666.757812 667.050781 666.453125 667.425781 666.113281 667.769531 C 665.769531 668.113281 665.394531 668.421875 664.992188 668.691406 C 664.589844 668.960938 664.164062 669.191406 663.714844 669.378906 C 663.269531 669.566406 662.804688 669.707031 662.332031 669.804688 C 661.855469 669.898438 661.375 669.949219 660.886719 669.949219 Z M 530.792969 655.101562 L 653.484375 655.101562 L 653.484375 613.59375 C 653.480469 611.898438 653.371094 610.210938 653.15625 608.527344 C 652.9375 606.847656 652.613281 605.1875 652.179688 603.546875 C 651.746094 601.90625 651.210938 600.300781 650.574219 598.730469 C 649.933594 597.160156 649.195312 595.636719 648.363281 594.160156 C 647.527344 592.6875 646.597656 591.269531 645.582031 589.914062 C 644.5625 588.558594 643.464844 587.273438 642.28125 586.058594 C 641.097656 584.84375 639.839844 583.710938 638.511719 582.65625 C 637.179688 581.605469 635.789062 580.640625 634.335938 579.769531 C 632.878906 581 631.371094 582.167969 629.808594 583.269531 C 628.25 584.367188 626.644531 585.398438 624.992188 586.355469 C 623.34375 587.3125 621.652344 588.199219 619.925781 589.007812 C 618.195312 589.816406 616.4375 590.550781 614.644531 591.207031 C 612.851562 591.859375 611.03125 592.4375 609.1875 592.929688 C 607.347656 593.425781 605.484375 593.839844 603.605469 594.171875 C 601.726562 594.5 599.835938 594.75 597.933594 594.914062 C 596.03125 595.078125 594.125 595.160156 592.21875 595.15625 C 590.308594 595.15625 588.402344 595.066406 586.503906 594.898438 C 584.601562 594.726562 582.710938 594.472656 580.832031 594.136719 C 578.953125 593.800781 577.09375 593.382812 575.25 592.878906 C 573.410156 592.378906 571.59375 591.800781 569.800781 591.140625 C 568.011719 590.480469 566.253906 589.742188 564.527344 588.925781 C 562.800781 588.113281 561.113281 587.222656 559.46875 586.257812 C 557.820312 585.296875 556.21875 584.261719 554.660156 583.15625 C 553.105469 582.050781 551.597656 580.882812 550.144531 579.644531 C 548.679688 580.511719 547.273438 581.472656 545.929688 582.523438 C 544.589844 583.570312 543.320312 584.703125 542.125 585.917969 C 540.929688 587.132812 539.816406 588.421875 538.785156 589.78125 C 537.757812 591.136719 536.820312 592.558594 535.976562 594.039062 C 535.132812 595.519531 534.386719 597.046875 533.738281 598.625 C 533.09375 600.203125 532.550781 601.8125 532.113281 603.460938 C 531.675781 605.109375 531.347656 606.777344 531.125 608.46875 C 530.90625 610.15625 530.792969 611.855469 530.792969 613.558594 Z M 530.792969 655.101562 " fill-opacity="1" fill-rule="nonzero"/></g><g clip-path="url(#clip-3)"><path fill="rgb(100%, 100%, 100%)" d="M 610.925781 412.625 L 198.125 412.625 C 197.082031 412.625 196.039062 412.570312 195 412.46875 C 193.960938 412.363281 192.925781 412.210938 191.902344 412.007812 C 190.878906 411.800781 189.867188 411.546875 188.867188 411.242188 C 187.867188 410.9375 186.882812 410.585938 185.917969 410.1875 C 184.953125 409.785156 184.011719 409.339844 183.089844 408.847656 C 182.167969 408.355469 181.273438 407.816406 180.40625 407.238281 C 179.535156 406.65625 178.699219 406.035156 177.890625 405.371094 C 177.082031 404.707031 176.308594 404.007812 175.570312 403.269531 C 174.832031 402.53125 174.132812 401.757812 173.46875 400.949219 C 172.804688 400.140625 172.183594 399.304688 171.601562 398.433594 C 171.023438 397.566406 170.484375 396.671875 169.992188 395.75 C 169.5 394.828125 169.050781 393.886719 168.652344 392.921875 C 168.25 391.953125 167.898438 390.972656 167.597656 389.972656 C 167.292969 388.972656 167.039062 387.960938 166.832031 386.9375 C 166.628906 385.914062 166.472656 384.878906 166.371094 383.839844 C 166.265625 382.800781 166.214844 381.757812 166.214844 380.714844 L 166.214844 172.792969 C 166.214844 171.746094 166.265625 170.703125 166.371094 169.664062 C 166.472656 168.625 166.628906 167.59375 166.832031 166.570312 C 167.039062 165.542969 167.292969 164.53125 167.597656 163.53125 C 167.898438 162.53125 168.25 161.550781 168.652344 160.585938 C 169.050781 159.621094 169.5 158.675781 169.992188 157.753906 C 170.484375 156.835938 171.023438 155.941406 171.601562 155.070312 C 172.183594 154.203125 172.804688 153.363281 173.46875 152.558594 C 174.132812 151.75 174.832031 150.976562 175.570312 150.238281 C 176.308594 149.5 177.082031 148.796875 177.890625 148.132812 C 178.699219 147.472656 179.535156 146.851562 180.40625 146.269531 C 181.273438 145.6875 182.167969 145.152344 183.089844 144.660156 C 184.011719 144.164062 184.953125 143.71875 185.917969 143.320312 C 186.882812 142.917969 187.867188 142.566406 188.867188 142.261719 C 189.867188 141.957031 190.878906 141.703125 191.902344 141.5 C 192.925781 141.292969 193.960938 141.140625 195 141.035156 C 196.039062 140.933594 197.082031 140.882812 198.125 140.878906 L 610.925781 140.878906 C 611.96875 140.882812 613.011719 140.933594 614.050781 141.035156 C 615.089844 141.140625 616.121094 141.292969 617.148438 141.5 C 618.171875 141.703125 619.183594 141.957031 620.183594 142.261719 C 621.183594 142.566406 622.164062 142.917969 623.132812 143.320312 C 624.097656 143.71875 625.039062 144.164062 625.960938 144.660156 C 626.882812 145.152344 627.777344 145.6875 628.644531 146.269531 C 629.515625 146.851562 630.351562 147.472656 631.160156 148.132812 C 631.96875 148.796875 632.742188 149.5 633.480469 150.238281 C 634.21875 150.976562 634.917969 151.75 635.582031 152.558594 C 636.246094 153.363281 636.867188 154.203125 637.445312 155.070312 C 638.027344 155.941406 638.566406 156.835938 639.058594 157.753906 C 639.550781 158.675781 639.996094 159.621094 640.398438 160.585938 C 640.796875 161.550781 641.148438 162.53125 641.453125 163.53125 C 641.757812 164.53125 642.011719 165.542969 642.21875 166.570312 C 642.421875 167.59375 642.574219 168.625 642.679688 169.664062 C 642.78125 170.703125 642.835938 171.746094 642.835938 172.792969 L 642.835938 380.714844 C 642.835938 381.757812 642.78125 382.800781 642.679688 383.839844 C 642.574219 384.878906 642.421875 385.914062 642.21875 386.9375 C 642.011719 387.960938 641.757812 388.972656 641.453125 389.972656 C 641.148438 390.972656 640.796875 391.953125 640.398438 392.921875 C 639.996094 393.886719 639.550781 394.828125 639.058594 395.75 C 638.566406 396.671875 638.027344 397.566406 637.445312 398.433594 C 636.867188 399.304688 636.246094 400.140625 635.582031 400.949219 C 634.917969 401.757812 634.21875 402.53125 633.480469 403.269531 C 632.742188 404.007812 631.96875 404.707031 631.160156 405.371094 C 630.351562 406.035156 629.515625 406.65625 628.644531 407.238281 C 627.777344 407.816406 626.882812 408.355469 625.960938 408.847656 C 625.039062 409.339844 624.097656 409.785156 623.132812 410.1875 C 622.164062 410.585938 621.183594 410.9375 620.183594 411.242188 C 619.183594 411.546875 618.171875 411.800781 617.148438 412.007812 C 616.121094 412.210938 615.089844 412.363281 614.050781 412.46875 C 613.011719 412.570312 611.96875 412.625 610.925781 412.625 Z M 198.125 155.726562 C 197.566406 155.730469 197.007812 155.757812 196.453125 155.8125 C 195.894531 155.867188 195.339844 155.949219 194.792969 156.058594 C 194.246094 156.171875 193.703125 156.308594 193.167969 156.46875 C 192.632812 156.632812 192.105469 156.820312 191.589844 157.035156 C 191.074219 157.25 190.566406 157.488281 190.074219 157.753906 C 189.582031 158.019531 189.101562 158.304688 188.636719 158.617188 C 188.171875 158.925781 187.722656 159.261719 187.289062 159.617188 C 186.859375 159.96875 186.445312 160.34375 186.046875 160.742188 C 185.652344 161.136719 185.277344 161.550781 184.921875 161.984375 C 184.566406 162.414062 184.234375 162.863281 183.921875 163.328125 C 183.613281 163.792969 183.324219 164.273438 183.0625 164.765625 C 182.796875 165.261719 182.558594 165.765625 182.34375 166.28125 C 182.128906 166.800781 181.941406 167.324219 181.777344 167.859375 C 181.613281 168.394531 181.476562 168.9375 181.367188 169.484375 C 181.257812 170.035156 181.175781 170.585938 181.121094 171.144531 C 181.0625 171.699219 181.035156 172.257812 181.035156 172.820312 L 181.035156 380.714844 C 181.035156 381.273438 181.0625 381.832031 181.121094 382.386719 C 181.175781 382.945312 181.257812 383.496094 181.367188 384.046875 C 181.476562 384.59375 181.613281 385.136719 181.777344 385.671875 C 181.941406 386.207031 182.128906 386.734375 182.34375 387.25 C 182.558594 387.765625 182.796875 388.273438 183.0625 388.765625 C 183.324219 389.257812 183.613281 389.738281 183.921875 390.203125 C 184.234375 390.667969 184.566406 391.117188 184.921875 391.546875 C 185.277344 391.980469 185.652344 392.394531 186.046875 392.789062 C 186.445312 393.1875 186.859375 393.5625 187.289062 393.917969 C 187.722656 394.273438 188.171875 394.605469 188.636719 394.914062 C 189.101562 395.226562 189.582031 395.515625 190.074219 395.777344 C 190.566406 396.042969 191.074219 396.28125 191.589844 396.496094 C 192.105469 396.710938 192.632812 396.898438 193.167969 397.0625 C 193.703125 397.226562 194.246094 397.363281 194.792969 397.472656 C 195.339844 397.582031 195.894531 397.664062 196.453125 397.71875 C 197.007812 397.773438 197.566406 397.804688 198.125 397.804688 L 610.925781 397.804688 C 611.484375 397.804688 612.042969 397.773438 612.597656 397.71875 C 613.15625 397.664062 613.707031 397.582031 614.257812 397.472656 C 614.804688 397.363281 615.347656 397.226562 615.882812 397.0625 C 616.417969 396.898438 616.945312 396.710938 617.460938 396.496094 C 617.976562 396.28125 618.480469 396.042969 618.976562 395.777344 C 619.46875 395.515625 619.949219 395.226562 620.414062 394.914062 C 620.878906 394.605469 621.328125 394.273438 621.757812 393.917969 C 622.191406 393.5625 622.605469 393.1875 623 392.789062 C 623.398438 392.394531 623.773438 391.980469 624.128906 391.546875 C 624.484375 391.117188 624.816406 390.667969 625.125 390.203125 C 625.4375 389.738281 625.726562 389.257812 625.988281 388.765625 C 626.253906 388.273438 626.492188 387.765625 626.707031 387.25 C 626.921875 386.734375 627.109375 386.207031 627.273438 385.671875 C 627.4375 385.136719 627.574219 384.59375 627.683594 384.046875 C 627.792969 383.496094 627.875 382.945312 627.929688 382.386719 C 627.984375 381.832031 628.015625 381.273438 628.015625 380.714844 L 628.015625 172.792969 C 628.011719 172.234375 627.984375 171.675781 627.929688 171.121094 C 627.871094 170.5625 627.789062 170.011719 627.679688 169.464844 C 627.566406 168.914062 627.429688 168.375 627.265625 167.839844 C 627.105469 167.304688 626.914062 166.78125 626.699219 166.265625 C 626.484375 165.746094 626.246094 165.242188 625.980469 164.75 C 625.714844 164.257812 625.429688 163.78125 625.117188 163.316406 C 624.804688 162.851562 624.472656 162.402344 624.117188 161.972656 C 623.761719 161.539062 623.386719 161.125 622.992188 160.730469 C 622.597656 160.335938 622.183594 159.960938 621.75 159.609375 C 621.316406 159.253906 620.871094 158.921875 620.40625 158.609375 C 619.941406 158.300781 619.460938 158.011719 618.96875 157.75 C 618.476562 157.484375 617.972656 157.246094 617.453125 157.035156 C 616.9375 156.820312 616.414062 156.628906 615.878906 156.46875 C 615.34375 156.304688 614.800781 156.167969 614.253906 156.058594 C 613.707031 155.949219 613.152344 155.867188 612.597656 155.8125 C 612.039062 155.757812 611.484375 155.730469 610.925781 155.726562 Z M 198.125 155.726562 " fill-opacity="1" fill-rule="nonzero"/></g><path fill="rgb(100%, 100%, 100%)" d="M 386.722656 325.570312 C 386.132812 325.566406 385.546875 325.535156 384.964844 325.476562 C 384.378906 325.414062 383.800781 325.328125 383.222656 325.210938 C 382.648438 325.09375 382.078125 324.949219 381.515625 324.777344 C 380.953125 324.605469 380.402344 324.40625 379.859375 324.179688 C 379.320312 323.953125 378.789062 323.703125 378.269531 323.425781 C 377.753906 323.148438 377.25 322.84375 376.761719 322.515625 C 376.273438 322.1875 375.804688 321.839844 375.351562 321.464844 C 374.898438 321.09375 374.460938 320.699219 374.046875 320.28125 C 373.632812 319.867188 373.238281 319.429688 372.867188 318.976562 C 372.492188 318.523438 372.144531 318.050781 371.816406 317.5625 C 371.492188 317.074219 371.191406 316.570312 370.914062 316.050781 C 370.636719 315.535156 370.382812 315.003906 370.160156 314.460938 C 369.933594 313.917969 369.734375 313.367188 369.566406 312.804688 C 369.394531 312.242188 369.25 311.671875 369.136719 311.097656 C 369.019531 310.519531 368.933594 309.9375 368.875 309.355469 C 368.816406 308.769531 368.785156 308.183594 368.785156 307.597656 L 368.785156 245.898438 C 368.785156 244.324219 368.988281 242.777344 369.394531 241.257812 C 369.804688 239.734375 370.402344 238.292969 371.1875 236.929688 C 371.976562 235.566406 372.925781 234.328125 374.039062 233.214844 C 375.152344 232.101562 376.390625 231.152344 377.753906 230.363281 C 379.117188 229.578125 380.5625 228.980469 382.082031 228.570312 C 383.601562 228.164062 385.152344 227.960938 386.726562 227.960938 C 388.300781 227.960938 389.847656 228.164062 391.367188 228.574219 C 392.890625 228.980469 394.332031 229.578125 395.695312 230.367188 L 449.105469 261.21875 C 450.46875 262.007812 451.707031 262.957031 452.820312 264.070312 C 453.933594 265.183594 454.886719 266.421875 455.675781 267.785156 C 456.460938 269.148438 457.058594 270.589844 457.46875 272.113281 C 457.875 273.632812 458.078125 275.183594 458.078125 276.757812 C 458.078125 278.332031 457.875 279.878906 457.46875 281.402344 C 457.058594 282.921875 456.460938 284.363281 455.675781 285.730469 C 454.886719 287.09375 453.933594 288.332031 452.820312 289.445312 C 451.707031 290.558594 450.46875 291.507812 449.105469 292.292969 L 395.695312 323.148438 C 392.921875 324.757812 389.929688 325.566406 386.722656 325.570312 Z M 386.722656 242.785156 C 386.160156 242.792969 385.640625 242.9375 385.15625 243.222656 C 384.671875 243.488281 384.289062 243.863281 384.007812 244.339844 C 383.730469 244.820312 383.59375 245.335938 383.597656 245.890625 L 383.597656 307.597656 C 383.597656 307.871094 383.636719 308.136719 383.710938 308.402344 C 383.78125 308.664062 383.886719 308.914062 384.023438 309.148438 C 384.164062 309.382812 384.328125 309.597656 384.523438 309.789062 C 384.71875 309.980469 384.933594 310.144531 385.167969 310.28125 C 385.40625 310.414062 385.65625 310.519531 385.921875 310.585938 C 386.183594 310.65625 386.453125 310.691406 386.726562 310.691406 C 387 310.6875 387.265625 310.652344 387.53125 310.582031 C 387.792969 310.507812 388.042969 310.402344 388.28125 310.265625 L 441.6875 279.414062 C 442.171875 279.136719 442.554688 278.757812 442.832031 278.273438 C 443.113281 277.789062 443.253906 277.269531 443.253906 276.710938 C 443.253906 276.15625 443.113281 275.632812 442.832031 275.152344 C 442.554688 274.667969 442.171875 274.289062 441.6875 274.011719 L 388.28125 243.160156 C 387.796875 242.886719 387.277344 242.757812 386.722656 242.765625 Z M 386.722656 242.785156 " fill-opacity="1" fill-rule="nonzero"/></svg>