<?xml version="1.0" encoding="UTF-8"?><svg xmlns="http://www.w3.org/2000/svg" xmlns:xlink="http://www.w3.org/1999/xlink" contentScriptType="text/ecmascript" width="810" zoomAndPan="magnify" contentStyleType="text/css" viewBox="0 0 810 809.999993" height="809.999993" preserveAspectRatio="xMidYMid meet" version="1.0"><defs><clipPath id="clip-0"><path d="M 229 81 L 707.609375 81 L 707.609375 448 L 229 448 Z M 229 81 " clip-rule="nonzero"/></clipPath></defs><g clip-path="url(#clip-0)"><path stroke-linecap="butt" transform="matrix(7.093138, 5.601313, -5.602303, 7.372731, -1020.990641, -6110.631273)" fill="none" stroke-linejoin="miter" d="M 579.949987 434.079758 L 535.309829 439.361114 L 536.150854 446.469776 L 580.791274 441.188751 Z M 579.949987 434.079758 " stroke="rgb(0%, 0%, 0%)" stroke-width="1" stroke-opacity="1" stroke-miterlimit="4"/></g><path stroke-linecap="butt" transform="matrix(7.093138, 5.601313, -5.602303, 7.372731, -1020.990641, -6110.631273)" fill="none" stroke-linejoin="miter" d="M 536.29977 443.989915 L 580.317013 439.216778 " stroke="rgb(0%, 0%, 0%)" stroke-width="1" stroke-opacity="1" stroke-miterlimit="4"/><path fill="rgb(100%, 100%, 100%)" d="M 354.789062 152.332031 L 314.367188 176.445312 L 358.816406 203.773438 L 398.785156 178.933594 L 354.785156 152.332031 Z M 354.789062 152.332031 " fill-opacity="1" fill-rule="evenodd"/><path fill="rgb(100%, 100%, 100%)" d="M 414.296875 187.527344 L 373.878906 211.644531 L 418.328125 238.972656 L 458.292969 214.132812 Z M 414.296875 187.527344 " fill-opacity="1" fill-rule="evenodd"/><path fill="rgb(100%, 100%, 100%)" d="M 469.835938 224.070312 L 429.414062 248.1875 L 473.863281 275.515625 L 513.832031 250.671875 Z M 469.835938 224.070312 " fill-opacity="1" fill-rule="evenodd"/><path fill="rgb(100%, 100%, 100%)" d="M 526.882812 258.621094 L 486.464844 282.738281 L 530.914062 310.066406 L 570.882812 285.226562 Z M 526.882812 258.621094 " fill-opacity="1" fill-rule="evenodd"/><path fill="rgb(100%, 100%, 100%)" d="M 583.941406 294.359375 L 543.523438 318.476562 L 587.972656 345.804688 L 627.9375 320.960938 Z M 583.941406 294.359375 " fill-opacity="1" fill-rule="evenodd"/><path fill="rgb(100%, 100%, 100%)" d="M 642.0625 328.695312 L 601.644531 352.8125 L 636.457031 375.660156 L 658.375 337.605469 Z M 642.0625 328.695312 " fill-opacity="1" fill-rule="evenodd"/><path fill="rgb(100%, 100%, 100%)" d="M 315.921875 129.542969 L 293.917969 165.074219 L 302.398438 167.125 L 342.367188 142.285156 Z M 315.921875 129.542969 " fill-opacity="1" fill-rule="evenodd"/><path fill="rgb(100%, 100%, 100%)" d="M 628.28125 400.851562 L 623.628906 400.253906 L 221.671875 333.546875 L 217.160156 332.699219 L 216.566406 337.351562 L 182.238281 578.03125 L 181.53125 582.289062 L 185.785156 582.996094 L 587.746094 649.703125 L 592.257812 650.554688 L 593.105469 646.042969 L 627.429688 405.359375 Z M 617.816406 408.3125 L 564.0625 627.210938 L 219.257812 566.421875 L 224.875 343.304688 Z M 617.816406 408.3125 " fill-opacity="1" fill-rule="evenodd"/><path fill="rgb(100%, 100%, 100%)" d="M 622.300781 419.421875 L 222.425781 358.527344 L 218.039062 375.355469 L 620.886719 433.914062 L 622.308594 419.425781 Z M 622.300781 419.421875 " fill-opacity="1" fill-rule="evenodd"/><path fill="rgb(100%, 100%, 100%)" d="M 579.441406 439.140625 L 575.832031 438.460938 L 257.625 390.15625 L 254.015625 389.476562 L 253.335938 393.082031 L 232.136719 554.691406 L 231.851562 558.1875 L 235.207031 558.726562 L 549.6875 611.929688 L 553.4375 612.355469 L 553.863281 608.605469 L 578.761719 442.742188 L 579.441406 439.136719 Z M 571.375 445.277344 L 526.460938 579.074219 L 240.164062 552.199219 L 280.199219 417.023438 L 571.367188 445.285156 Z M 571.375 445.277344 " fill-opacity="1" fill-rule="evenodd"/></svg>